<?xml version="1.0" encoding="UTF-8"?>
<svg id="_레이어_2" data-name="레이어 2" xmlns="http://www.w3.org/2000/svg" viewBox="0 0 670.5 756.11">
  <defs>
    <style>
      .cls-1 {
        fill: #000000;
      }

      .cls-2 {
        fill: #2e2f2e;
      }

      .cls-3 {
        fill: #0a0809;
      }

      .cls-4 {
        fill: #231815;
      }

      .cls-5 {
        fill: #0e0f0f;
      }

      .cls-6 {
        fill: #3b3b39;
      }
    </style>
  </defs>
  <g id="_레이어_1-2" data-name="레이어 1">
    <g>
      <path class="cls-1" d="m287.4,304.9c2.54,11.81,5.28,23.58,7.49,35.44,1.46,7.84,1.63,15.94,3.26,23.74,3.98,19.03,8.85,37.88,12.63,56.95,2.01,10.14,5.71,18.75,13.6,25.7,4.55,4.01,8.25,9.01,12.25,13.63,9.14,10.53,18.26,21.08,27.3,31.69,1.7,2,3.18,2.9,5.91,1.69,7.58-3.35,15.57-4.84,23.89-4.41,0,.66,0,1.31.01,1.97-8.59,1.13-17.19,2.26-26.86,3.54,2.22,2.51,3.55,3.58,4.32,4.97,2.28,4.11,5.18,4.27,8.94,2.09,4.06-2.35,8.28-4.44,12.43-6.64.31.27.62.53.93.8-4.5,2.54-8.95,5.2-13.53,7.58-2.6,1.36-3.5,2.73-1.31,5.18,27.18,30.33,55.19,59.85,85.02,87.61,3.04,2.76,6.07,5.51,9.11,8.27,13.7,12.57,28.57,23.52,45.33,31.66,3.52,1.71,7.77,3.04,11.58,2.81,14.38-.89,27.71,4.08,41.52,6.31,7.95,1.28,16.21,1.07,24.31.83,12.23-.37,23.81-.38,32.91,10.24,6.03,7.03,13.06,13.49,22.55,16.02,2.65.71,5.35,1.34,8.07,1.71,8.76,1.22,11.75,4.51,11.4,13.18-.18,4.43-.51,8.87-1.08,13.26-.7,5.46-4.54,8.32-10.76,9.67-2.53.54-5.48,2.21-6.89,4.29-4.95,7.28-11.19,11.41-20.24,11.65-6.66.17-13.29,1.35-19.94,2.08-1.01.25-2.02.5-3.04.75-8.58.16-15.34,4.58-21.94,9.37-2.99.97-5.98,1.94-8.97,2.91-.67,0-1.35-.02-2.02-.02-7.49.63-15.09.68-22.45,2.01-11.93,2.16-23.72,5.15-35.56,7.79-3.55.34-7.09.95-10.64.97-14.72.11-29.43,0-44.15.09-1.69.01-3.38.73-5.08,1.12-1-.04-2-.07-3-.11-2,.37-4,.74-5.99,1.1-1,0-2-.01-3-.02-4.33.34-8.66.69-12.99,1.03-1.99.24-3.97.48-5.96.72-1.34-.24-2.69-.49-4.03-.73-.67,0-1.33,0-2,0-.65-.06-1.3-.12-1.94-.17-.59-.2-1.18-.39-1.77-.59,0,0,0,0,0,0-.99-.16-1.98-.33-2.96-.49-.76-.21-1.51-.41-2.27-.62-4.68-1.37-9.35-2.74-14.03-4.11-1.45-.67-2.9-1.33-4.34-2.01-7.72-3.68-15.13-8.32-24.32-7.18-6.73.83-13.53,1.19-20.24,2.13-5.06.71-10.03,2.02-15.04,3.06-8.97-.09-17.95-.17-26.92-.26-4.5-1.66-9.02-3.28-13.5-5-1.02-.39-2.16-.92-2.8-1.74-1.8-2.31-3.54-2.63-6.37-1.46-2.15.89-4.88.38-7.36.49-3-.34-6-.67-8.99-1.01-7.3-.73-14.59-1.46-21.89-2.19-.36-.24-.72-.48-1.08-.72-.99-.09-1.99-.17-2.98-.26-.66-.2-1.32-.4-1.98-.6-5.25-1.78-10.46-3.69-15.76-5.3-3.01-.91-6.17-1.33-9.26-1.97l-8.99.05c-1.59-.33-3.17-.66-4.76-.99h-1.51c-.43,0-.87,0-1.3,0-9.48-2.31-19.31-3.67-26.83-10.98-1.14-1.1-3.64-1.14-5.49-1.07-2.22.09-4.42.82-6.72,1.3-1.47,4.74-5.33,7.66-10.45,7.5-6.54-.21-13.07-.57-19.6-.9-3.39-.17-4.49-2.26-4.25-5.34.69-8.91,1.83-17.81,1.94-26.72.07-5.76-1.38-11.53-2.16-17.3-1.39-10.31-3.76-20.51,1.53-30.71,1.58-3.04.8-7.49.54-11.25-.39-5.53-1.3-11.02-1.99-16.53.04-15.47.1-30.94.08-46.41,0-.9-.56-1.79-.85-2.69-2.11-21.81-1.72-43.86-6.76-65.4-1.22-5.21-.86-10.78-1.28-16.18-.95-12.28-1.82-24.57-2.95-36.84-.84-9.11-2-18.19-3.08-27.27-.23-1.94-.76-3.84-2.1-5.83-1.29,6.31-2.76,12.58-3.82,18.93-1.88,11.28-3.62,22.58-5.21,33.9-1.13,8.09-1.83,16.24-2.88,24.35-1.57,12.14-3.43,24.24-4.88,36.39-.99,8.29-1.5,16.65-2.23,24.97-.25,11.37-.5,22.74-.76,34.12.22,13.8-1.67,27.3-4.78,40.76-.88,3.8.33,8.62,1.98,12.35,4.2,9.49,3,18.98,1.2,28.53-1.19,6.31-3.31,12.47-4.23,18.81-.41,2.83,1.48,5.92,1.65,8.93.3,5.3-.25,10.66.18,15.94.43,5.33-.99,8.39-6.81,8.82-8.07.6-16.7,2.96-23.53-2.55-4.58-3.7-9.55-5.67-14.69-7.89-3.74-1.61-5.71-8.31-3.42-12.57,2.3-4.27,5.82-7.86,8.45-11.98,1.11-1.75,1.3-4.08,1.9-6.15-.74-3.72-1.49-7.44-2.23-11.16-.24-.99-.48-1.98-.71-2.98-.1-1.01-.21-2.01-.31-3.02-.22-.35-.45-.7-.67-1.05.03-.32-.03-.63-.17-.92-4.57-33.39-2.57-66.96-2.73-100.46-.06-12.97,1.28-25.95,1.89-38.93.44-9.4,1.17-18.81.98-28.2-.26-12.66-1.05-25.32-2.03-37.95-1.06-13.65-2.54-27.26-4.07-40.86-.14-1.24-1.79-2.52-3.02-3.39-4.03-2.88-9.39-4.73-12.05-8.52-6.37-9.05-7.85-19.75-6.69-30.72.06-.59,1.16-1.08,1.77-1.61,3.06.28,6.12.86,9.16.75,3.77-.14,5.22-2.1,3.25-5.86-3.51,1.09-6.9,2.15-10.29,3.2-1.99-.07-3.98-.13-5.98-.2-1.66-1.01-3.32-2.02-4.98-3.03-.97-8.83-1.8-17.69-2.97-26.5-.47-3.57-1.74-7.03-2.48-10.58-.2-.95.44-2.05.38-3.07-.55-8.46-1.28-16.91-1.72-25.37-.28-5.29-.16-10.59-.22-15.89-.06-5.14-.12-10.28-.17-15.41.34-4,.67-7.99,1.01-11.99,1.09-8.45,3.13-16.91,3.02-25.35-.13-9.38,3.41-18.12,3.2-27.39-.06-2.7.62-5.42.96-8.13l.8-9.06c1.06-5.84,2.1-11.68,3.18-17.51,1.9-10.24,4.33-20.41,5.58-30.72.78-6.46,5.27-7.7,9.78-9.5,14.28-5.72,28.87-10.77,42.74-17.35,6.35-3.01,11.3-8.98,16.88-13.6,2.42.24,4.83.62,7.25.71,10.59.4,21.18.66,31.76,1.1,2.93.12,5.84.71,9.4,1.16-5.51-9.68-30.64-12.09-44.93-5.7-.88-4.04-1.81-8.26-2.73-12.48.22-4.17.89-8.55-4.62-10.09-1.05-1.69-2.09-3.38-3.14-5.06-.97-3.18-2.45-6.3-2.79-9.55-.36-3.5-1.17-7.03,1.94-10.55,1.51-1.7.61-6.23-.24-9.18-1.71-5.94.2-11.24,2.51-16.24C87.73,5.86,99.3.62,113.21.04c13.02-.54,23.75,3.85,30.4,15.92,4.22,7.67,4.03,15.56,2.03,23.75-.54,2.24-2.56,4.78,1.69,6.81,1.47.7.68,6.13.92,9.4.02.65.03,1.3.05,1.95-.46,2.06-.68,4.22-1.46,6.15-.83,2.07-1.74,4.97-3.39,5.67-4.68,1.98-4.16,5.79-4.66,9.51-.7,5.25-1.67,10.46-2.52,15.68-.03.65-.06,1.31-.09,1.96,3.48,7.35,9.54,11.81,16.75,15.02,8.04,3.58,16.05,7.2,24.07,10.81,2.74,1.28,5.39,2.91,8.27,3.7,1.27.35,3.01-.97,4.53-1.54.42-2.99.85-5.97,1.27-8.96.28-.68.56-1.35.84-2.03.7-2.63,1.4-5.27,2.11-7.9.24-.69.47-1.37.71-2.06,1.76-4.61,3.51-9.22,5.27-13.84-2.81,11.51-5.66,23.02-8.4,34.56-.31,1.29-.24,3.87.02,3.92,5.25,1.01,6.33,5.59,8.34,9.37.33.64.66,1.28.99,1.92,3.22,2.4,5.04,1.14,5.82-2.34.53-2.37.65-4.85,1.27-7.19,1.59-6.04,2.53-11.95-2.01-17.25-.25-1.07-.5-2.13-.74-3.2-1.38-7.12-2.76-14.24-4.11-21.17-.34.41-.83.98-1.32,1.56.74-4.1,1.47-8.21,2.21-12.31-.02-1.36-.05-2.71-.07-4.07-.09-1.66-.18-3.32-.26-4.98,0-.98-.01-1.96-.02-2.94.52-1.97,1.04-3.94,1.56-5.91.26-.69.52-1.39.79-2.08,1.08-1.41,2.33-2.72,3.23-4.23,5.81-9.8,13.77-15.68,25.75-14.82,2.96.21,5.95-.11,8.93-.19.65,0,1.3,0,1.95-.01,10.5,2.65,15.85,10.55,20.42,19.52,2,3.92,4.95,7.36,7.47,11.02.02.61.04,1.22.06,1.83-.21.72-.74,1.52-.59,2.16,1.53,6.24,3.18,12.45,4.8,18.67-1.43,10.09-3.85,20.18,4.52,28.93,2.24,2.34,3.79,6.09,4.12,9.35.64,6.34.19,12.79.19,19.98,2.46.48,5.74,1.11,9.02,1.74,1.28,1.23,2.53,2.5,3.84,3.69,4.21,3.8,6.52,8.55,7.31,14.13.91,6.41,1.45,12.92,2.94,19.19,4.35,18.24,9.32,36.34,13.54,54.61.94,4.08,2.21,5.81,6.27,5.21.67.29,1.34.57,2,.86-1.98.67-5.67,1.37-5.65,2,.06,3.12.96,6.27,2.01,9.26.1.28,3.25-.5,4.98-.79.24.24.48.48.72.72-1.5,1.16-2.99,2.32-5.39,4.18,4.9,18.06,10.02,36.92,15.15,55.79.71,2.34,1.42,4.69,2.14,7.03,2.21,8.69,4.28,17.42,6.68,26.05,1.49,5.35,3.5,10.56,5.27,15.83.78,2.66,1.55,5.31,2.33,7.97,3.58,11.64,7.01,23.32,10.8,34.89,1.63,4.99,4.15,9.69,5.91,14.65.81,2.28.74,4.87,1.08,7.32l-.8,1.03c-5.11-15.24-10.44-30.41-15.27-45.74-6.51-20.7-12.95-41.43-18.84-62.32-5.42-19.24-10.08-38.69-15.04-58.06-.64-2.51-1.8-3.22-4.31-2.15-2.53,1.08-5.24,1.75-7.87,2.6,2.46-1.44,5.16-2.6,7.31-4.42,1.38-1.17,2.81-3.36,2.71-5-.2-3.25-1.45-6.44-2.27-9.71-1.31.42-2.19.83-3.12.98q-7.47,1.19-7.48,8.76c0,2.32-.29,4.69.13,6.92.18.93,1.87,1.57,2.87,2.35-2.05,3.33-4.11,6.66-6.16,9.99-.32,0-.64.01-.96.07-4.71,2.66-9.2,5.91-14.19,7.85-6.32,2.45-8.66,6.1-6.36,12.52-.47-2.22,1.16,4.24.38,1.76m-14.66-49.11c-.2.7-.4,1.4-.59,2.1,0,.66-.02,1.32-.02,1.98-.9,4.22-1.8,8.44-2.71,12.66.71.43,1.41.87,2.12,1.3,3.51-2.98,7.02-5.95,10.53-8.93l3.71-5.4c-.03-.47-.05-.94-.08-1.4-.24-.77-.49-1.55-.73-2.32-1.06-8.89-2.12-17.78-3.18-26.67-.56,0-1.12.01-1.69.02-.73,1.56-1.46,3.11-2.19,4.67-.24,2.35-.47,4.7-.71,7.05.35,2.02,0,.99-.71,3.01-.02.64-.76,2-.78,2.64-1.93,3.88-2.08,4.98-1.24,2.67-.17.48-.76,2.09-1.34,3.7-.13.97-.26,1.94-.39,2.92Zm-35.52-66.49c.35.37.71.73,1.06,1.1.19-.49.37-.97.56-1.46v-28.53c-.54,0-1.08.01-1.62.02v28.87Zm-10.14-106.1c1.68-5.55,3.37-11.09,5.05-16.64-.47-.13-.93-.26-1.4-.39-1.53,5.31-3.06,10.61-4.59,15.92-2.63,12.14-4.57,24.37-6,36.67.53.07,1.05.15,1.58.22,1.79-11.93,3.57-23.86,5.36-35.79Zm27.86,349.52c-1.11-.76-5.48-6.23-6.59-6.99-.15.18-.83,1.03-.98,1.21,1.4,1.79,6.59,7.63,9,10.72-7.23,1.5-13.23,2.69-19.21,4-3.46.76-7.49.52-9.16,4.77-.65-1.24-1.88-2.51-1.84-3.73.13-3.69.76-7.36,1.2-11.04l-.07-1.93c.35-5.02.7-10.03,1.05-15.05.22-.56.44-1.12.67-1.69,3.18,2.23,6.42,4.37,9.51,6.72,3.03,2.3,5.91,4.81,8.85,7.23.33-.4.65-.81.98-1.21-6.56-5.43-13.18-10.79-19.66-16.31-5.56-4.73-11.17-9.43-16.3-14.61-1.57-1.58-2.39-4.76-2.2-7.09.99-11.93,2.42-23.83,3.7-35.74-.45-.1-.91-.2-1.36-.3-.5,2.97-1.18,5.92-1.48,8.91-.8,8.01-.65,16.21-2.39,24.01-1.24,5.56.21,9.36,3.7,12.86,3.62,3.65,7.74,6.8,11.37,10.44,1.18,1.18,2.15,3.23,2.13,4.86-.17,11.24-.78,22.47-.86,33.71-.02,2.38.88,6.09,2.52,6.94,7.94,4.13,16.27,7.5,24.46,11.15,3.46.96,4.57,3.2,4.03,6.7-.33,2.11-.14,4.32-.05,6.48.41,10.2,3.16,14.64,12.89,17.34,7.18,1.99,14.77,3.1,22.22,3.34,10.73.35,21.51-.37,32.26-.82,2.88-.12,4.28.67,4.61,3.68.41,3.7,2.92,5.41,6.51,5.26,5.1-.21,10.3-.14,15.27-1.12,5.45-1.07,10.7-3.2,16.03-4.86-.12-.42-.24-.83-.35-1.25-3.4.85-6.77,1.95-10.22,2.49-7.09,1.09-14.21,2.09-21.35,2.6-1.49.11-3.96-1.78-4.57-3.32-1.31-3.28-1.7-6.93-2.46-10.43-3.31-14.98-6.63-29.97-9.94-44.95-.52.12-1.04.25-1.56.37.57,2.83,1.05,5.68,1.72,8.49,2.93,12.38,5.91,24.76,8.87,37.13v4.03c-10.07,0-19.78-.89-29.25.23-11.38,1.34-22.14.72-32.25-4.7-2.22-1.19-4.59-3.77-5.11-6.11-1.04-4.7-.92-9.68-1.17-14.54-.2-3.99-.96-7.34-6.13-6.77-2.53-1.09-5.03-2.23-7.59-3.24-6.23-2.47-12.75-4.36-17.11-10.06-1.46-1.9-2.24-3.31.8-4.19,2.3-.85,4.53-1.94,6.9-2.51,6.15-1.48,12.41-2.52,18.5-4.18,2.72-.74,4.74-2.69,2.32-5.91.98-5.18,1.96-10.35,2.95-15.53-.33-.04-.65-.07-.98-.11-.94,4.87-1.88,9.73-2.82,14.6Zm.19-59.93v42.27h1.67v-42.27c-.02-10.36-.05-20.71-.07-31.07-.02-1.96-.03-3.93-.05-5.89-.22-.38-.45-.75-.67-1.13-.06-13.96-.13-27.91-.19-41.87.1-1.94.19-3.88.25-5h30.21l-.07-1.59c-3.43.19-6.85.49-10.28.54-7.12.1-14.3.4-20.92-3.04l-.21-1.9c.01-15.65.02-31.3.03-46.95-.29-4.4-.78-8.8-.84-13.21-.12-9.14,0-18.29-.02-27.43,0-1.44-.28-2.88-.43-4.32-.14.05-.28.11-.42.16v44.8c0,15.65,0,31.3,0,46.95-.09.99-.18,1.98-.26,2.97-.14.08-.31.13-.42.24-.07.07-.11.23-.09.33.59,2.49,1.18,4.97,1.77,7.46.33,16.3.67,32.61,1,48.91,0,10.35,0,20.69,0,31.04Zm12.61-283.69c-1.63-5.73-3.26-11.46-4.89-17.19-.42.14-.84.29-1.25.43,1.78,6.25,3.55,12.5,5.33,18.75.13,1.62.1,3.27.4,4.86,2.9,15.35,5.86,30.69,8.79,46.03,1.62,10.09,2.87,20.26,4.93,30.27,4.4,21.47,9.12,42.88,13.9,64.27,2.86,12.83,6.07,25.58,9.13,38.36.8-1.76.79-3.37.44-4.91-3.12-13.71-6.56-27.35-9.42-41.11-4.27-20.58-8.16-41.24-12.18-61.88-1.75-8.98-3.39-17.98-5.08-26.97-3.36-16.97-6.73-33.94-10.09-50.91Zm-1.97,34.93c-.56-4.19-1.04-8.4-1.71-12.58-.76-4.81-1.68-9.6-2.54-14.4-.42.08-.83.16-1.25.24,1.28,9.23,2.56,18.47,3.83,27.7,1.28,11.34,2.66,22.67,3.83,34.02,1.12,10.92,1.92,21.87,3.06,32.79.28,2.66,1.31,5.25,1.99,7.87l1.05-.24c-2.76-25.13-5.52-50.27-8.28-75.4Zm-45.79,143.6c-.5,1.54-1.32,3.06-1.43,4.63-.62,8.69-.88,17.41-1.63,26.09-1.15,13.2-2.63,26.37-3.9,39.55-.12,1.26.27,2.58.43,3.87l1.37-.08c1.93-22.9,3.86-45.8,5.82-69.03,3.09,1.44,5.93,3.13,9.01,4.09,3.7,1.15,4.74,3.24,4.43,6.96-.85,10.17-1.41,20.36-2.02,30.54-.07,1.13.35,2.28.54,3.42,1.09-.6,1.27-1.15,1.31-1.7,1.04-16.94,2.35-33.86,3-50.81.7-18.23.73-36.48,1.15-54.72.1-4.42.67-8.83.89-13.26.1-1.96-.15-3.94-.24-5.92-.65.02-1.31.04-1.97.05-.62,24.24-1.23,48.49-1.85,72.86-5.31-2.01-10.29-3.89-16.42-6.2.64,3.83,1.08,6.47,1.52,9.11-.04.18-.04.36,0,.54Zm77.55,105.68c-1.54,9.59-3.32,18.87-4.42,28.23-.51,4.32-1.19,9.72.84,13.01,3.92,6.36,9.68,11.59,14.74,17.24.42.47,1.28.53,2.21.89-4.5-19.99-8.9-39.51-13.37-59.37Zm-129.12,136.96c.82.06,1.65.12,2.47.19,4.29-30.59,12.24-60.88,7.2-92.22-.56-.05-1.12-.09-1.67-.14-2.67,30.73-5.33,61.45-8,92.18Zm152.58-257.87c-3.93-16.84-7.74-33.13-11.55-49.42-.44.06-.89.12-1.33.18.83,17.18,1.66,34.35,2.49,51.75,3.89-.94,7.01-1.69,10.39-2.5Zm-113.14-110.35c8.7-1.94,9.8-3.7,8.96-13.51-1.79-.75-3.54-1.49-5.93-2.49-1,5.3-1.99,10.54-3.03,16Zm9.68,11.79c-.6-.11-1.2-.21-1.8-.32-1.75,16.22-3.49,32.44-5.24,48.67.57.06,1.15.12,1.72.19,1.77-16.18,3.55-32.36,5.32-48.54Zm20.49-38.65c-.68.01-1.36.03-2.05.04.38,14.12-1.1,28.33,2.05,42.29v-42.33Zm11.79,5.06c-.58.01-1.16.02-1.74.03,1.03,15.3,2.07,30.6,3.1,45.9.42-.02.84-.05,1.26-.07-.87-15.29-1.75-30.57-2.62-45.86ZM36.97,281.55c.81.09,1.63.18,2.44.27,1.19-10.41,2.38-20.82,3.58-31.23l-1.58-.19c-1.48,10.38-2.96,20.77-4.44,31.15Zm147.41,11.35c-.32-.28-.64-.56-.96-.84-2.08,1.41-5.77,2.67-5.93,4.27-.41,4.11.75,8.38,1.28,12.59.25,0,.5,0,.75-.01,1.62-5.33,3.24-10.67,4.85-16ZM250.85,54.45c-8.4-3.35-22.63.82-26.64,6.75,3.69-1.63,7.7-4,12.03-5.13,4.41-1.15,9.14-1.07,14.61-1.62Z"/>
      <path class="cls-4" d="m330.05,250.81c-.67-.29-1.34-.57-2-.86h12.29c-.34-1.43-.44-2.08-.66-2.7-10.08-28.2-20.17-56.39-30.27-84.58-11.02-30.72-20.61-62.02-37.32-90.39-.02-.61-.04-1.22-.06-1.83,6.67,12.89,13.35,25.78,20.02,38.67.96,2.32,1.91,4.65,2.87,6.97,4.11,11.49,8.18,22.99,12.33,34.46,4.65,12.83,9.36,25.64,14.05,38.46.9,2.34,1.8,4.69,2.7,7.03,4.06,11.64,8.13,23.29,12.19,34.93.78,2.38,1.55,4.75,2.33,7.13,1.35,3.73,2.69,7.47,4.05,11.19,1.16,3.18.87,5.84-2.56,7.42-.32-.25-.64-.51-.97-.76.74-1.16,1.48-2.31,2.9-4.53-4.62-.24-8.25-.43-11.88-.61Z"/>
      <path class="cls-4" d="m375.27,436.74l.8-1.03c6.94,18.69,13.88,37.38,20.81,56.06-.55.67-1.1,1.33-1.65,2-.42-.41-.84-.82-1.26-1.23,0-.66,0-1.31-.01-1.97.03-7.07-1.83-8.4-8.39-7.67-8.14.9-16.37,1.09-24.56,1.58-.05-.25-.05-.5.03-.75,10-.82,19.99-1.64,30.42-2.49-5.71-15.68-10.95-30.09-16.19-44.5Z"/>
      <path class="cls-3" d="m339.11,257.01c-2.33,1.66-4.66,3.33-6.99,4.99-.24-.24-.48-.48-.72-.72,2.35-1.65,4.71-3.3,7.06-4.95.22.23.44.45.66.68Z"/>
      <path class="cls-3" d="m339.03,255.96c.32.25.64.51.97.76-.26.2-.56.29-.89.29-.22-.23-.44-.45-.66-.68.1-.27.29-.4.58-.37Z"/>
      <path class="cls-4" d="m361.01,484.48c-4.96.06-5.04-4.37-5.81-7.23-6.83-25.23-13.54-50.49-19.89-75.85-5.36-21.39-10.18-42.92-15.28-64.37-3.83-16.1-7.77-32.18-11.62-48.28-.61-2.56-.97-5.17-1.45-7.76.32-.06.64-.08.96-.07,2.38,9.09,4.87,18.15,7.13,27.27,3.24,13.08,6.3,26.21,9.48,39.31,6.52,26.89,13,53.79,19.64,80.66,4.21,17.02,8.61,34,13.14,50.93.47,1.75,2.45,3.1,3.73,4.64-.07.25-.08.5-.03.75Z"/>
      <path class="cls-6" d="m206.25,114.29c-1.69,8.93-3.38,17.86-5.07,26.79-.33-.64-.66-1.28-.99-1.92,1.77-9.35,3.55-18.71,5.32-28.06.25,1.07.5,2.13.74,3.2Z"/>
      <path class="cls-4" d="m220.16,265.18c.54-1.61,1.07-3.23,1.87-5.61,3.18,1.12,6.45,2.28,9.72,3.43,0,.45.01.9.02,1.34-3.87.46-7.74.92-11.61,1.38-.03-.18-.03-.36,0-.54Z"/>
      <path class="cls-2" d="m255.96,431.85l-.85-1.04c.94-4.87,1.88-9.73,2.82-14.6.33.04.65.07.98.11"/>
      <path class="cls-2" d="m291.88,146.15c-.77-2.59-1.54-5.18-2.31-7.77-3.86-13.04-7.76-26.07-11.54-39.13-.36-1.23.01-2.66.05-4,4.97,16.95,9.93,33.9,14.9,50.85-.37.02-.73.04-1.1.06Z"/>
      <path class="cls-3" d="m291.88,146.15c.37-.02.73-.04,1.1-.06.39,2.34.79,4.69,1.18,7.03-.76-2.32-1.52-4.65-2.28-6.97Z"/>
      <path class="cls-5" d="m221.3,267.2h13.46c-.3,2.54-.59,5.03-.93,7.91-4.41-2.27-8.68-4.47-12.96-6.67.14-.41.28-.82.42-1.24Z"/>
    </g>
  </g>
</svg>